<svg height="16" viewBox="0 0 26 26" width="16" xmlns="http://www.w3.org/2000/svg">
    <g transform="translate(5, 5)">
        <path d="m14.564 2-2.2441.32812.81836 1.9004 1.7148-.25zm-4.2227.61523-1.9785.28906.81836 1.9023 1.9785-.28906zm-3.959.57812-1.9785.28906.81836 1.9023 1.9785-.28906zm-3.957.57812-1.7148.25.28906 1.9785 2.2441-.32812zm-1.4258 3.2285v6c0 1.1046.89543 2 2 2h12v-8z" fill="#e0e0e0"/>
        <g transform="scale(0.4) translate(12, 19)">
            <g fill="#000000" transform="translate(0 -1036.4)">
                <path d="m9 2a6 6 0 0 0 -6 6h2a4 4 0 0 1 4-4 4 4 0 0 1 4 4 4 4 0 0 1 -4 4v2a6 6 0 0 0 6-6 6 6 0 0 0 -6-6z" transform="translate(0 1036.4)"/><path d="m4.118 1048.3-1.6771-.9683-1.6771-.9682 1.6771-.9683 1.6771-.9682-.0000001 1.9365z" transform="matrix(0 -1.1926 1.5492 0 -1617 1049.3)"/>
            </g>
        </g>
    </g>
</svg>
