<?xml version="1.0" encoding="UTF-8" standalone="no"?>
<!DOCTYPE svg PUBLIC "-//W3C//DTD SVG 1.1//EN" "http://www.w3.org/Graphics/SVG/1.1/DTD/svg11.dtd">
<svg width="100%" height="100%" viewBox="0 0 16 16" version="1.1" xmlns="http://www.w3.org/2000/svg" xmlns:xlink="http://www.w3.org/1999/xlink" xml:space="preserve" xmlns:serif="http://www.serif.com/" style="fill-rule:evenodd;clip-rule:evenodd;stroke-linejoin:round;stroke-miterlimit:2;">
    <g>
        <path d="M12.039,4.308L12.217,5.525L11.162,5.679L10.658,4.51L12.039,4.308ZM9.441,4.686L9.944,5.857L8.727,6.035L8.223,4.864L9.441,4.686ZM7.004,5.042L7.508,6.213L6.291,6.391L5.787,5.22L7.004,5.042ZM4.569,5.398L5.073,6.567L3.692,6.769L3.514,5.552L4.569,5.398ZM3.692,7.385L12.307,7.385L12.307,12.308L4.923,12.308C4.243,12.308 3.692,11.757 3.692,11.077L3.692,7.385ZM7.262,9.72C7.263,9.181 7.707,8.738 8.246,8.738C8.786,8.738 9.231,9.183 9.231,9.723C9.231,10.263 8.786,10.708 8.246,10.708L8.246,11.2C9.056,11.2 9.723,10.533 9.723,9.723C9.723,8.913 9.056,8.246 8.246,8.246C7.437,8.246 6.771,8.911 6.769,9.72L6.283,9.72L6.653,10.213L7.022,10.705L7.391,10.213L7.76,9.72L7.262,9.72Z" style="fill:rgb(239,239,239);fill-rule:nonzero;"/>
    </g>
</svg>
